<svg width="73" height="65" viewBox="0 0 73 65" fill="none" xmlns="http://www.w3.org/2000/svg">
<path d="M36.5 62.4C53.179 62.4 66.7 48.879 66.7 32.2C66.7 15.521 53.179 2 36.5 2C19.821 2 6.3 15.521 6.3 32.2C6.3 48.879 19.821 62.4 36.5 62.4Z" fill="#E8ECEF"/>
<path d="M56.3 29.5C55.7 28.9 51.2 23.8 50.7 23.2C49.9 22.4 48.8 21.8 47.8 21.8L42.8 21.6C41.8 21.6 41 22.4 41 23.4V31.6C41 32.6 40.2 33.4 39.2 33.4H16.4C15.4 33.4 14.6 34.2 14.6 35.1V40.4C14.7 41.3 15.5 41.9 16.4 41.9H19.9C20.5 38.7 23.4 36.3 26.8 36.3C28.7 36.3 30.5 37 31.8 38.3C32.8 39.3 33.5 40.5 33.7 41.9H41.1C41.7 38.7 44.6 36.3 48 36.3C49.9 36.3 51.7 37 53 38.3C54 39.3 54.7 40.5 54.9 41.9H57.5C58.4 41.9 59.2 41.2 59.3 40.4V33.8C59.3 32.7 56.9 30.1 56.3 29.5ZM53.2 31H43.5C43.1 31 42.8 30.6 42.8 30.1V24.5C42.8 24 43.1 23.6 43.5 23.6L47.2 23.7C48.1 23.7 48.9 24.1 49.6 24.9C49.6 24.9 53.9 29.8 54.2 30.1C54.2 30.2 54.5 31 53.2 31ZM26.8 38.2C23.9 38.2 21.6 40.4 21.6 43.2C21.6 46 23.9 48.2 26.8 48.2C29.7 48.2 32 46 32 43.2C32 40.5 29.6 38.2 26.8 38.2ZM26.8 45.4C25.5 45.4 24.5 44.4 24.5 43.2C24.5 42 25.5 41 26.8 41C28 41 29.1 42 29.1 43.2C29 44.4 28 45.4 26.8 45.4ZM48 38.2C45.1 38.2 42.8 40.4 42.8 43.2C42.8 46 45.1 48.2 48 48.2C50.9 48.2 53.2 46 53.2 43.2C53.2 40.5 50.9 38.2 48 38.2ZM48 45.4C46.7 45.4 45.7 44.4 45.7 43.2C45.7 42 46.7 41 48 41C49.2 41 50.3 42 50.3 43.2C50.2 44.4 49.2 45.4 48 45.4Z" fill="#2B5999"/>
<path d="M38.9 30.8H38.8H30.8H22.7H14.6V16.3H22.7H30.8H38.8L38.9 30.8Z" fill="white"/>
<path d="M39 14.1668H14V30.8331H39V14.1668Z" fill="#F0F0F0"/>
<path d="M39 14.1668H14V19.7223H39V14.1668Z" fill="#D80027"/>
<path d="M39 25.2777H14V30.8332H39V25.2777Z" fill="#0052B4"/>
<path d="M28.6739 19.9638H27.2246L27.4662 18.1522L28.4324 17.4275L29.3985 18.1522V19.6015L28.6739 19.9638Z" fill="#338AF3"/>
<path d="M24.3261 19.9638H25.7754L25.5338 18.1522L24.5676 17.4275L23.6015 18.1522V19.6015L24.3261 19.9638Z" fill="#338AF3"/>
<path d="M27.4662 19.9638H25.5338V18.1522L26.5 17.4275L27.4662 18.1522V19.9638Z" fill="#0052B4"/>
<path d="M23.6015 19.6015V23.587C23.6015 24.536 24.0599 25.3799 24.7669 25.909L25.2741 25.782L25.9142 26.426C26.1035 26.4649 26.2993 26.4855 26.5 26.4855C26.6995 26.4855 26.8943 26.4652 27.0827 26.4267L27.8133 25.8183L28.233 25.9079C28.9398 25.3789 29.3984 24.5357 29.3984 23.587V19.6015L23.6015 19.6015Z" fill="#F0F0F0"/>
<path d="M24.761 19.6016H23.6016V20.761H24.761V19.6016Z" fill="#D80027"/>
<path d="M27.0795 19.6016H25.9201V20.761H27.0795V19.6016Z" fill="#D80027"/>
<path d="M29.3985 19.6016H28.2391V20.761H29.3985V19.6016Z" fill="#D80027"/>
<path d="M25.9203 20.7609H24.7609V21.9203H25.9203V20.7609Z" fill="#D80027"/>
<path d="M28.2393 20.7609H27.0799V21.9203H28.2393V20.7609Z" fill="#D80027"/>
<path d="M24.761 21.9201H23.6016V23.0795H24.761V21.9201Z" fill="#D80027"/>
<path d="M25.9203 23.0793H24.7609V24.2388H25.9203V23.0793Z" fill="#D80027"/>
<path d="M27.0795 21.9201H25.9201V23.0795H27.0795V21.9201Z" fill="#D80027"/>
<path d="M29.3985 21.9201H28.2391V23.0795H29.3985V21.9201Z" fill="#D80027"/>
<path d="M28.2393 23.0793H27.0799V24.2388H28.2393V23.0793Z" fill="#D80027"/>
<path d="M27.0795 24.2391H25.9201V25.3985H27.0795V24.2391Z" fill="#D80027"/>
<path d="M24.7609 24.2389H23.6763C23.7758 24.6699 23.9713 25.0643 24.2396 25.3983H24.7609V24.2389Z" fill="#D80027"/>
<path d="M28.2391 25.3983H28.7604C29.0287 25.0642 29.2242 24.6698 29.3237 24.2389H28.2391V25.3983Z" fill="#D80027"/>
<path d="M24.7609 25.3983V25.9042C25.0981 26.1579 25.4921 26.3399 25.9203 26.4271V25.3983H24.7609V25.3983Z" fill="#D80027"/>
<path d="M27.0797 25.3983V26.4271C27.5079 26.3399 27.902 26.1579 28.2392 25.9042V25.3983H27.0797V25.3983Z" fill="#D80027"/>
</svg>
