<?xml version="1.0" encoding="utf-8"?>
<!-- Generator: Adobe Illustrator 21.0.2, SVG Export Plug-In . SVG Version: 6.00 Build 0)  -->
<svg version="1.1" id="Layer_1" xmlns="http://www.w3.org/2000/svg" xmlns:xlink="http://www.w3.org/1999/xlink" x="0px" y="0px"
	 viewBox="0 0 73 64.4" style="enable-background:new 0 0 73 64.4;" xml:space="preserve">
<style type="text/css">
	.st0{fill:#E8ECEF;}
	.st1{fill:#2B5999;}
	.st2{fill:#FFFFFF;}
	.st3{fill:#C81525;}
	.st4{fill:#F2B913;}
	.st5{fill:#24813C;}
	.st6{fill:#CA1E2E;}
	.st7{fill:#C81626;}
	.st8{fill:#203262;}
	.st9{fill:#C91A24;}
	.st10{fill:#241843;}
	.st11{fill:#FFFFFF;stroke:#C91728;stroke-width:0.1;stroke-linecap:round;}
	.st12{fill:#3195AC;stroke:#42609D;stroke-width:0.1;}
	.st13{fill:none;}
	.st14{fill:#3195AC;}
	.st15{fill:none;stroke:#42609D;stroke-width:0.1;}
	.st16{fill:#FFFFFF;stroke:#FFFFFF;stroke-width:0.1;}
	.st17{fill:#E4DE19;}
	.st18{fill:none;stroke:#393019;stroke-width:0.1;}
	.st19{fill:#393019;}
	.st20{fill:#393019;stroke:#393019;stroke-width:0.1;}
	.st21{fill:#5C4C2A;}
	.st22{fill:#5C4D2A;}
	.st23{fill:#231741;}
	.st24{fill:none;stroke:#231842;stroke-width:0.1;}
	.st25{fill:#910F1F;}
	.st26{fill:none;stroke:#910F1F;stroke-width:0.1;}
	.st27{fill:#910F1F;stroke:#000000;stroke-width:0.1;}
	.st28{stroke:#000000;stroke-width:0.1;}
	.st29{fill:#E1DD19;stroke:#393019;stroke-width:0.1;}
	.st30{fill:#FCFAFA;stroke:#FCFAFA;stroke-width:0.1;}
	.st31{fill:#C91728;stroke:#C91728;stroke-width:0.1;}
	.st32{fill:none;stroke:#000000;stroke-width:0.1;}
	.st33{fill:#FDFDFC;}
	.st34{fill:#231842;}
	.st35{fill:#DFDC0D;}
	.st36{fill:none;stroke:#EEAE15;stroke-width:0.1;}
	.st37{fill:#EEAC16;}
	.st38{fill:#EEAE15;}
	.st39{fill:#C91728;}
	.st40{fill:none;stroke:#C91728;stroke-width:0.1;}
	.st41{fill:#C81626;stroke:#C81626;stroke-width:0.1;}
	.st42{fill:#2B3272;}
	.st43{fill:#C80F27;}
	.st44{fill:#323878;}
	.st45{fill:#F3DC10;}
	.st46{fill:#C91B2A;}
	.st47{fill:#257A3B;}
</style>
<circle class="st0" cx="36.5" cy="32.2" r="30.2"/>
<path class="st1" d="M31.4,19.3c0.6,0,1-0.5,1-1c0-2.3,1.9-4.1,4.1-4.1c2.3,0,4.1,1.8,4.1,4.1c0,0.6,0.5,1,1,1c0.6,0,1-0.5,1-1
	c0-3.4-2.8-6.1-6.2-6.1c-3.4,0-6.2,2.8-6.2,6.2C30.3,18.9,30.8,19.3,31.4,19.3L31.4,19.3z M47.9,22.4c0-0.9-0.7-1.6-1.6-1.6H26.8
	c-0.9,0-1.6,0.7-1.6,1.6l-2.5,26.3c0,0.9,0.7,1.6,1.6,1.6h24.3c0.9,0,1.6-0.7,1.6-1.6L47.9,22.4L47.9,22.4z M46.3,46.4
	c-0.2,0.2-0.4,0.3-0.7,0.3l-18.3,0c-0.5,0-0.9-0.4-0.9-0.9c0-0.5,0.4-0.9,0.9-0.9h17.3l-0.6-6.5c0-0.5,0.3-0.9,0.8-1
	c0.5,0,0.9,0.3,1,0.8l0.7,7.5C46.5,45.9,46.4,46.2,46.3,46.4"/>
</svg>
