<?xml version="1.0" encoding="utf-8"?>
<!-- Generator: Adobe Illustrator 21.0.2, SVG Export Plug-In . SVG Version: 6.00 Build 0)  -->
<svg version="1.1" id="Layer_1" xmlns="http://www.w3.org/2000/svg" xmlns:xlink="http://www.w3.org/1999/xlink" x="0px" y="0px"
	 viewBox="0 0 73 64.4" style="enable-background:new 0 0 73 64.4;" xml:space="preserve">
<style type="text/css">
	.st0{fill:#E8ECEF;}
	.st1{fill:#2B5999;}
	.st2{fill:#FFFFFF;}
	.st3{fill:#C81525;}
	.st4{fill:#F2B913;}
	.st5{fill:#24813C;}
	.st6{fill:#CA1E2E;}
	.st7{fill:#C81626;}
	.st8{fill:#203262;}
	.st9{fill:#C91A24;}
	.st10{fill:#241843;}
	.st11{fill:#FFFFFF;stroke:#C91728;stroke-width:0.1;stroke-linecap:round;}
	.st12{fill:#3195AC;stroke:#42609D;stroke-width:0.1;}
	.st13{fill:none;}
	.st14{fill:#3195AC;}
	.st15{fill:none;stroke:#42609D;stroke-width:0.1;}
	.st16{fill:#FFFFFF;stroke:#FFFFFF;stroke-width:0.1;}
	.st17{fill:#E4DE19;}
	.st18{fill:none;stroke:#393019;stroke-width:0.1;}
	.st19{fill:#393019;}
	.st20{fill:#393019;stroke:#393019;stroke-width:0.1;}
	.st21{fill:#5C4C2A;}
	.st22{fill:#5C4D2A;}
	.st23{fill:#231741;}
	.st24{fill:none;stroke:#231842;stroke-width:0.1;}
	.st25{fill:#910F1F;}
	.st26{fill:none;stroke:#910F1F;stroke-width:0.1;}
	.st27{fill:#910F1F;stroke:#000000;stroke-width:0.1;}
	.st28{stroke:#000000;stroke-width:0.1;}
	.st29{fill:#E1DD19;stroke:#393019;stroke-width:0.1;}
	.st30{fill:#FCFAFA;stroke:#FCFAFA;stroke-width:0.1;}
	.st31{fill:#C91728;stroke:#C91728;stroke-width:0.1;}
	.st32{fill:none;stroke:#000000;stroke-width:0.1;}
	.st33{fill:#FDFDFC;}
	.st34{fill:#231842;}
	.st35{fill:#DFDC0D;}
	.st36{fill:none;stroke:#EEAE15;stroke-width:0.1;}
	.st37{fill:#EEAC16;}
	.st38{fill:#EEAE15;}
	.st39{fill:#C91728;}
	.st40{fill:none;stroke:#C91728;stroke-width:0.1;}
	.st41{fill:#C81626;stroke:#C81626;stroke-width:0.1;}
	.st42{fill:#2B3272;}
	.st43{fill:#C80F27;}
	.st44{fill:#323878;}
	.st45{fill:#F3DC10;}
	.st46{fill:#C91B2A;}
	.st47{fill:#257A3B;}
</style>
<circle class="st0" cx="36.5" cy="32.2" r="30.2"/>
<path class="st1" d="M31.2,23.4c0-2.9,2.4-5.3,5.3-5.3s5.3,2.4,5.3,5.3v4.3h4.3v-4.3c0-5.3-4.3-9.6-9.6-9.6c-5.3,0-9.6,4.3-9.6,9.6
	v4.3h4.3V23.4L31.2,23.4z M29.2,22c-0.1,0-0.1,0-0.2,0c-0.2-0.1-0.4-0.2-0.5-0.4c-0.1-0.2-0.1-0.4-0.1-0.6c1.1-3.4,4.2-5.8,7.8-5.9
	c0.5,0,0.8,0.3,0.8,0.8c0,0.2-0.1,0.4-0.2,0.6c-0.1,0.2-0.3,0.2-0.6,0.3c-2.9,0.1-5.4,2-6.3,4.8C29.9,21.8,29.5,22,29.2,22L29.2,22z
	 M46.3,29.1H26.7c-2.1,0-3.8,1.7-3.8,3.8v12c0,2.1,1.7,3.8,3.8,3.8h19.5c2.1,0,3.8-1.7,3.8-3.8v-12C50.1,30.8,48.4,29.1,46.3,29.1
	L46.3,29.1z M27.6,33.4c-0.1,0-0.3,0.1-0.3,0.3v10.9c0,0.5-0.4,0.9-0.9,0.9c-0.5,0-0.9-0.4-0.9-0.9l0-10.9c0-1.2,0.9-2.1,2.1-2.1
	c0.5,0,0.9,0.4,0.9,0.9C28.5,33,28.1,33.4,27.6,33.4L27.6,33.4z M38.1,39v3.3c0,0.9-0.7,1.6-1.6,1.6c-0.9,0-1.6-0.7-1.6-1.6V39
	c-0.7-0.5-1.1-1.3-1.1-2.2c0-1.5,1.2-2.7,2.7-2.7c1.5,0,2.7,1.2,2.7,2.7C39.2,37.7,38.8,38.5,38.1,39"/>
</svg>
